<svg width="172" height="83" viewBox="0 0 172 83" fill="none" xmlns="http://www.w3.org/2000/svg">
<rect width="172" height="83" fill="#D9D9D9"/>
<path d="M40.0463 31.8484L38.9825 32.3042L36.8212 29.1805H33.0052V33.5031H34.8288L36.0614 31.6795H37.1421V36.7112L35.9094 37.336L34.7613 34.9383H33.0052V39.1595L36.0276 39.7674L35.4198 41H28.0748V39.9194L29.662 38.6699V29.4845L27.7709 28.9441L28.3788 27.7284H38.7292L40.0463 27.4245V31.8484ZM50.1067 41H46.0712V39.531L44.1632 41.0338C43.938 41.1238 43.6566 41.1688 43.3189 41.1688C42.2045 41.1688 41.3997 40.8987 40.9044 40.3584C40.4091 39.8068 40.1614 39.1483 40.1614 38.3828C40.1614 37.9438 40.2965 37.5104 40.5667 37.0827C40.8368 36.6549 41.2195 36.261 41.7148 35.9007H46.0712V35.8332C46.0712 35.2479 45.9079 34.8145 45.5815 34.5331C45.2663 34.2404 44.8442 34.0941 44.3151 34.0941C43.5384 34.0941 42.4521 34.3642 41.0563 34.9045L40.5498 33.8577L42.8799 31.9834C43.4765 31.7921 44.18 31.6964 44.9905 31.6964C46.3188 31.6964 47.3488 31.9947 48.0805 32.5913C48.8234 33.1879 49.1949 34.0547 49.1949 35.1916V39.1764L50.7145 39.7674L50.1067 41ZM44.2814 38.6361C44.8104 38.6361 45.407 38.4222 46.0712 37.9945V37.1333H43.4202C43.2964 37.336 43.2345 37.5555 43.2345 37.7919C43.2345 38.0508 43.3245 38.259 43.5046 38.4166C43.696 38.5629 43.9549 38.6361 44.2814 38.6361ZM57.2107 34.2967C56.8393 34.2967 56.4847 34.4318 56.147 34.7019V39.092L58.781 39.7505L58.1732 40.9831H51.5205V39.9025L53.0233 38.6192V35.0734L51.5205 34.1109V33.0303L55.2352 31.5444L55.8768 33.368L57.3627 31.8315C57.5991 31.7414 57.8636 31.6964 58.1563 31.6964C58.8204 31.6964 59.3776 31.8427 59.8279 32.1354C60.2894 32.4168 60.6102 32.8108 60.7904 33.3173L59.0343 35.5293H57.8355C57.8242 35.079 57.7679 34.7638 57.6666 34.5837C57.5766 34.3924 57.4246 34.2967 57.2107 34.2967ZM77.7764 40.9493H73.7577V35.3604C73.7577 34.9552 73.6902 34.6681 73.5551 34.4993C73.4313 34.3304 73.2062 34.246 72.8797 34.246C72.3957 34.246 71.9173 34.398 71.4445 34.7019V39.2777L72.8291 39.7336L72.2043 40.9662H68.3208V35.3773C68.3208 34.9721 68.2532 34.685 68.1182 34.5162C67.9943 34.3473 67.7692 34.2629 67.4428 34.2629C66.9587 34.2629 66.4803 34.4149 66.0075 34.7188V39.2946L67.3921 39.7505L66.7674 40.9831H61.3811V39.9025L62.8838 38.6192V35.0734L61.3811 34.1109V33.0303L65.0958 31.5444L65.7712 33.4355L67.7298 31.8315C68 31.7414 68.3095 31.6964 68.6585 31.6964C69.3226 31.6964 69.8798 31.8427 70.3301 32.1354C70.7916 32.4281 71.1124 32.8333 71.2925 33.3511L73.1668 31.8315C73.4369 31.7414 73.7465 31.6964 74.0954 31.6964C74.9509 31.6964 75.6263 31.9328 76.1216 32.4056C76.6282 32.8671 76.8815 33.4975 76.8815 34.2967V39.2777L78.4011 39.7167L77.7764 40.9493ZM87.2435 27.3907C87.9189 27.3907 88.7069 27.4751 89.6074 27.644C90.508 27.8128 91.1665 27.993 91.583 28.1843V31.8652H89.7087C88.8645 30.2893 87.7163 29.5013 86.2642 29.5013C85.6789 29.5013 85.1442 29.6927 84.6601 30.0754C84.1761 30.4469 83.7934 30.9647 83.512 31.6288C83.2305 32.293 83.0898 33.0359 83.0898 33.8577C83.0898 34.792 83.2305 35.6475 83.512 36.4242C83.7934 37.1896 84.2211 37.8031 84.7952 38.2646C85.3806 38.7149 86.101 38.94 86.9565 38.94C88.0034 38.94 89.4892 38.4222 91.4141 37.3866L92.1402 38.5517L89.0333 40.9662C88.5155 41.1126 88.0202 41.2082 87.5475 41.2533C87.0747 41.3096 86.5625 41.3377 86.0109 41.3377C84.7277 41.3377 83.5851 41.0507 82.5833 40.4766C81.5927 39.9025 80.8216 39.1145 80.27 38.1127C79.7185 37.0996 79.4427 35.9514 79.4427 34.6681C79.4427 33.3511 79.8536 32.1354 80.6753 31.021C81.497 29.8953 82.5214 29.0117 83.7484 28.3701C84.9753 27.7172 86.1404 27.3907 87.2435 27.3907ZM99.2791 31.6964C100.135 31.6964 100.9 31.8934 101.575 32.2874C102.251 32.6701 102.774 33.2048 103.146 33.8914C103.528 34.5668 103.72 35.3154 103.72 36.1371C103.72 37.0264 103.427 37.8594 102.842 38.6361C102.256 39.4128 101.519 40.0319 100.63 40.4935C99.7519 40.9437 98.902 41.1688 98.0803 41.1688C97.236 41.1688 96.4762 40.9775 95.8008 40.5948C95.1254 40.2008 94.5963 39.6661 94.2136 38.9907C93.8421 38.3153 93.6564 37.5611 93.6564 36.7281C93.6564 35.8276 93.9491 34.9946 94.5344 34.2291C95.1198 33.4524 95.8514 32.8389 96.7295 32.3887C97.6075 31.9271 98.4574 31.6964 99.2791 31.6964ZM98.2998 33.807C97.8945 33.807 97.5793 33.9871 97.3542 34.3473C97.1403 34.6963 97.0334 35.2197 97.0334 35.9176C97.0334 36.8294 97.2079 37.5836 97.5568 38.1802C97.917 38.7656 98.418 39.0582 99.0596 39.0582C99.4761 39.0582 99.7913 38.8781 100.005 38.5179C100.23 38.1577 100.343 37.6286 100.343 36.9307C100.343 36.0189 100.163 35.2704 99.8025 34.685C99.4536 34.0997 98.9526 33.807 98.2998 33.807ZM110.36 41H104.822V39.9194L106.325 38.6361V29.7546L104.822 28.7584V27.6778L108.25 26.2594H109.449V39.2777L110.968 39.7674L110.36 41ZM116.989 41H111.451V39.9194L112.954 38.6361V29.7546L111.451 28.7584V27.6778L114.879 26.2594H116.077V39.2777L117.597 39.7674L116.989 41ZM128.447 41H124.411V39.531L122.503 41.0338C122.278 41.1238 121.997 41.1688 121.659 41.1688C120.545 41.1688 119.74 40.8987 119.245 40.3584C118.749 39.8068 118.502 39.1483 118.502 38.3828C118.502 37.9438 118.637 37.5104 118.907 37.0827C119.177 36.6549 119.56 36.261 120.055 35.9007H124.411V35.8332C124.411 35.2479 124.248 34.8145 123.922 34.5331C123.607 34.2404 123.184 34.0941 122.655 34.0941C121.879 34.0941 120.792 34.3642 119.397 34.9045L118.89 33.8577L121.22 31.9834C121.817 31.7921 122.52 31.6964 123.331 31.6964C124.659 31.6964 125.689 31.9947 126.421 32.5913C127.164 33.1879 127.535 34.0547 127.535 35.1916V39.1764L129.055 39.7674L128.447 41ZM122.622 38.6361C123.151 38.6361 123.747 38.4222 124.411 37.9945V37.1333H121.76C121.637 37.336 121.575 37.5555 121.575 37.7919C121.575 38.0508 121.665 38.259 121.845 38.4166C122.036 38.5629 122.295 38.6361 122.622 38.6361ZM136.986 31.6964C137.707 31.6964 138.354 31.8934 138.928 32.2874C139.502 32.6701 139.947 33.2048 140.262 33.8914C140.588 34.5668 140.752 35.3154 140.752 36.1371C140.752 37.0264 140.459 37.8594 139.874 38.6361C139.288 39.4128 138.551 40.0319 137.662 40.4935C136.784 40.9437 135.934 41.1688 135.112 41.1688C134.673 41.1688 134.256 41.0844 133.863 40.9156C133.48 40.7467 133.136 40.5103 132.833 40.2064L132.039 41H130.857V29.7546L129.354 28.7584V27.6778L132.782 26.2594H133.981V33.2498L135.754 31.8315C136.114 31.7414 136.525 31.6964 136.986 31.6964ZM136.091 39.0582C137.003 39.0582 137.459 38.3491 137.459 36.9307C137.459 36.0977 137.324 35.4167 137.054 34.8876C136.795 34.3473 136.407 34.0772 135.889 34.0772C135.202 34.0772 134.566 34.246 133.981 34.5837V37.3191C133.981 37.8144 134.161 38.2309 134.521 38.5686C134.892 38.895 135.416 39.0582 136.091 39.0582Z" fill="#487307"/>
<g clip-path="url(#clip0_5_6)">
<path fill-rule="evenodd" clip-rule="evenodd" d="M75.4803 53.0155L79.0854 49.8861C80.7628 48.43 83.0215 47.7554 85.2627 48.0412L90.0315 48.6493L96.6509 45.2125C97.0783 44.9905 97.5977 45.2879 97.5977 45.7549V57.4399C97.5977 58.2356 97.1982 58.9824 96.5246 59.4454L92.0669 62.5094L87.2427 58.6211C88.2118 58.291 89.0395 57.7465 89.7224 57.0662C90.3376 56.4534 90.3191 55.4776 89.6811 54.8867C89.0434 54.2958 88.0275 54.3136 87.4124 54.9264C86.9349 55.4021 86.383 55.7076 85.7373 55.829C85.1747 55.9349 84.4582 55.916 83.5573 55.6507L82.4108 54.7266L79.2157 57.2104C77.9606 58.1862 76.1152 57.9777 75.1301 56.7487C74.2149 55.6072 74.3674 53.9815 75.4803 53.0155ZM73.3287 50.7282L75.9172 48.4813C74.8182 48.1932 73.6539 48.1342 72.5036 48.3255L67.7911 49.1093L62.6217 46.4369C62.1848 46.211 61.6552 46.515 61.6552 46.9916L61.6552 57.4388C61.6552 58.272 62.0841 59.0514 62.8008 59.5207L76.8053 68.6911C78.6183 69.8783 81.0089 69.8564 82.7978 68.6359L89.2305 64.2474L82.3739 58.7209L81.2346 59.6067C78.5781 61.6718 74.6725 61.2305 72.5874 58.6296C70.6505 56.2134 70.9733 52.7728 73.3287 50.7282Z" fill="#487307"/>
</g>
<defs>
<clipPath id="clip0_5_6">
<rect width="35.9425" height="34.5261" fill="white" transform="translate(61.6552 40.089)"/>
</clipPath>
</defs>
</svg>
